<svg version="1.1" xmlns="http://www.w3.org/2000/svg" xmlns:xlink="http://www.w3.org/1999/xlink" width="252.38745"
     height="252.38745" viewBox="0,0,252.38745,252.38745">
    <g transform="translate(-113.80627,-53.80627)">
        <g data-paper-data="{&quot;isPaintingLayer&quot;:true}" stroke="none" stroke-linecap="butt"
           stroke-linejoin="miter" stroke-miterlimit="10" stroke-dasharray="" stroke-dashoffset="0"
           style="mix-blend-mode: normal">
            <path
                    d="M113.80627,180c0,-69.69487 56.49886,-126.19373 126.19373,-126.19373c69.69487,0 126.19373,56.49886 126.19373,126.19373c0,69.69487 -56.49886,126.19373 -126.19373,126.19373c-69.69487,0 -126.19373,-56.49886 -126.19373,-126.19373z"
                    fill="#ec395b" fill-rule="nonzero" stroke-width="0" />
            <path
                    d="M225.37,155.615c13.21,0 22.48,3.65 27.82,10.96c3.99,5.19 5.99,11.5 5.99,18.94c-0.02,3.2 -0.36,6.41 -1,9.56l-4.02,22.32c-2.27,12.76 -8.17,22.56 -17.71,29.41c-9.56,6.84 -21.57,10.26 -36.04,10.26c-14.46,0 -25.57,-2.86 -33.3,-8.57c-6.14,-4.51 -9.21,-10.83 -9.21,-18.94c0,-2.2 0.21,-4.4 0.6,-6.57l21.21,-120h34.02l-10.21,58.02c5.6,-3.59 12.87,-5.39 21.81,-5.39M267.62,163.525l-1.01,23.04c2.53,-1.38 5.38,-2.08 8.26,-2.03c4.03,0 6.04,1.83 6.03,5.5c-0.02,0.75 -0.08,1.5 -0.21,2.24l-11.28,64.22h34.24l12.08,-68.91c0.58,-3.74 0.85,-7.53 0.82,-11.31c0,-4.31 -1.27,-8.53 -3.63,-12.14c-3.62,-5.7 -11.55,-8.56 -23.77,-8.56c-8.05,0 -15.23,2.65 -21.53,7.95zM198.55,189.115l-5.81,33.29c1.6,3.99 4.94,5.98 10.01,5.98c10.27,0.01 16.34,-5.11 18.21,-15.35l2.6,-14.95c0.16,-1.49 0.23,-2.99 0.21,-4.49c0,-1.92 -0.84,-3.99 -2.5,-6.18c-1.67,-2.2 -5.27,-3.29 -10.81,-3.29c-5.54,0.01 -9.51,1.67 -11.91,4.99zM287.6,108.815c-3.8,3.92 -5.7,10.13 -5.7,18.64c0,9.56 5.53,14.35 16.6,14.35c8.14,0 14.1,-1.92 17.9,-5.78c3.8,-3.85 5.7,-9.96 5.7,-18.34c0,-9.82 -5.6,-14.75 -16.8,-14.75c-8.01,0 -13.9,1.96 -17.7,5.88z"
                    fill="#ffffff" fill-rule="evenodd" stroke-width="1" />
        </g>
    </g>
</svg>