<svg version="1.1" xmlns="http://www.w3.org/2000/svg" width="144.004"
     height="144" viewBox="0,0,144.004,144">
    <g transform="translate(-167.998,-108)">
        <g data-paper-data="{&quot;isPaintingLayer&quot;:true}" fill-rule="nonzero" stroke="none" stroke-width="1"
           stroke-linecap="butt" stroke-linejoin="miter" stroke-miterlimit="10" stroke-dasharray=""
           stroke-dashoffset="0" style="mix-blend-mode: normal">
            <path d="M312.002,118.376v123.234c0,5.735 -4.785,10.39 -10.659,10.39h-122.716c-5.864,0 -10.629,-4.656 -10.629,-10.39v-123.234c0,-5.728 4.765,-10.376 10.629,-10.376h122.716c5.874,0 10.659,4.648 10.659,10.376z"
                  fill="#0077b5"/>
            <path d="M189.349,161.985h21.359v68.722h-21.359zM200.033,127.825c6.828,0 12.377,5.549 12.377,12.38c0,6.837 -5.549,12.386 -12.377,12.386c-6.846,0 -12.387,-5.549 -12.387,-12.386c0.001,-6.83 5.542,-12.38 12.387,-12.38"
                  fill="#ffffff"/>
            <path d="M224.105,161.985h20.485v9.39h0.286c2.852,-5.403 9.818,-11.099 20.209,-11.099c21.628,0 25.621,14.234 25.621,32.736v37.694h-21.344v-33.42c0,-7.969 -0.146,-18.22 -11.099,-18.22c-11.113,0 -12.819,8.681 -12.819,17.644v33.996h-21.34v-68.721z"
                  fill="#ffffff"/>
        </g>
    </g>
</svg>