<svg width="305" height="305" viewBox="0 0 305 305" fill="none" xmlns="http://www.w3.org/2000/svg">
    <path d="M152.49 0C68.2725 0 0 68.2725 0 152.49C0 217.092 40.1937 272.319 96.9187 294.537C95.5862 282.472 94.3812 263.917 97.4475 250.746C100.219 238.845 115.329 174.949 115.329 174.949C115.329 174.949 110.768 165.814 110.768 152.309C110.768 131.105 123.058 115.275 138.36 115.275C151.37 115.275 157.654 125.043 157.654 136.755C157.654 149.839 149.324 169.4 145.025 187.527C141.432 202.705 152.636 215.082 167.606 215.082C194.709 215.082 215.542 186.505 215.542 145.254C215.542 108.742 189.308 83.215 151.846 83.215C108.458 83.215 82.99 115.759 82.99 149.391C82.99 162.497 88.0387 176.551 94.3387 184.191C95.585 185.701 95.7675 187.024 95.3963 188.565C94.2388 193.381 91.6663 203.739 91.1613 205.859C90.4963 208.65 88.9512 209.242 86.0612 207.897C67.0162 199.032 55.1087 171.187 55.1087 148.822C55.1087 100.72 90.0587 56.5437 155.865 56.5437C208.764 56.5437 249.872 94.2387 249.872 144.615C249.872 197.169 216.736 239.464 170.744 239.464C155.291 239.464 140.765 231.436 135.792 221.954C135.792 221.954 128.146 251.069 126.292 258.204C122.85 271.449 113.556 288.051 107.34 298.18C121.607 302.597 136.77 304.98 152.49 304.98C236.709 304.98 304.981 236.707 304.981 152.49C304.981 68.2725 236.709 0 152.49 0Z"
          fill="#E60023"/>
</svg>
