<svg width="54" height="56" viewBox="0 0 54 56" fill="none" xmlns="http://www.w3.org/2000/svg">
<path d="M28.476 43.164C26.558 39.389 24.308 35.576 19.919 35.576C19.08 35.576 18.242 35.715 17.473 36.066L15.982 33.082C17.799 31.523 20.735 30.287 24.509 30.287C30.38 30.287 33.393 33.115 35.785 36.725C37.205 33.643 37.88 29.481 37.88 24.322C37.88 11.439 33.851 4.824 24.44 4.824C15.166 4.824 11.159 11.439 11.159 24.322C11.159 37.137 15.166 43.684 24.44 43.684C25.914 43.684 27.249 43.522 28.476 43.164ZM30.775 47.66C28.742 48.205 26.582 48.506 24.44 48.506C12.091 48.506 0 38.652 0 24.322C0 9.856 12.091 0 24.44 0C36.996 0 48.971 9.785 48.971 24.322C48.971 32.408 45.198 38.979 39.714 43.226C41.486 45.881 43.31 47.644 45.85 47.644C48.622 47.644 49.74 45.502 49.927 43.822H53.537C53.748 46.059 52.629 55.356 42.54 55.356C36.429 55.356 33.198 51.814 30.775 47.66Z" fill="#B92B27"/>
</svg>
